#N canvas 1195 577 616 489 10;
#X obj 37 184 adc~;
#X obj 37 227 *~;
#X obj 67 227 *~;
#X obj 47 280 dac~;
#X floatatom 82 198 5 0 0 0 - - -;
#X obj 82 145 vsl 15 40 0 1 0 0 empty empty empty 0 -9 0 10 -262144
-1 -1 3900 1;
#X obj 82 117 r Gain @hv_param 0 1 1;
#X text 83 94 Game Parameter;
#X obj 277 119 loadbang;
#X msg 275 197 1;
#X obj 287 241 tgl 15 0 empty empty empty 17 7 0 10 -262144 -1 -1 1
1;
#X obj 287 281 metro;
#X floatatom 362 225 5 0 0 0 - - -;
#X obj 362 201 /;
#X msg 362 177 60000;
#X floatatom 414 185 5 0 0 0 - - -;
#X msg 362 141 60;
#X obj 414 161 r BPM @hv_param 0 300 60;
#X obj 275 326 float;
#X obj 318 326 + 1;
#X floatatom 275 358 5 0 0 0 - - -;
#X obj 275 389 s timesincestart @hv_param;
#X text 414 141 BPM Parameter;
#X text 274 411 sends to Game Parameter;
#X connect 0 0 1 0;
#X connect 0 1 2 0;
#X connect 1 0 3 0;
#X connect 2 0 3 1;
#X connect 4 0 2 1;
#X connect 4 0 1 1;
#X connect 5 0 4 0;
#X connect 6 0 5 0;
#X connect 8 0 9 0;
#X connect 8 0 16 0;
#X connect 9 0 10 0;
#X connect 9 0 18 0;
#X connect 10 0 11 0;
#X connect 11 0 18 0;
#X connect 12 0 11 1;
#X connect 13 0 12 0;
#X connect 14 0 13 0;
#X connect 15 0 13 1;
#X connect 16 0 15 0;
#X connect 16 0 14 0;
#X connect 17 0 15 0;
#X connect 18 0 19 0;
#X connect 18 0 20 0;
#X connect 19 0 18 1;
#X connect 20 0 21 0;
